<?xml version="1.0" encoding="UTF-8" standalone="no"?>
<svg
   version="1.0"
   width="260.000000pt"
   height="280.000000pt"
   viewBox="0 0 260.000000 280.000000"
   preserveAspectRatio="xMidYMid meet"
   id="svg58"
   sodipodi:docname="logo.svg"
   inkscape:version="1.1 (c68e22c387, 2021-05-23)"
   xmlns:inkscape="http://www.inkscape.org/namespaces/inkscape"
   xmlns:sodipodi="http://sodipodi.sourceforge.net/DTD/sodipodi-0.dtd"
   xmlns="http://www.w3.org/2000/svg"
   xmlns:svg="http://www.w3.org/2000/svg">
  <defs
     id="defs62" />
  <sodipodi:namedview
     id="namedview60"
     pagecolor="#ffffff"
     bordercolor="#666666"
     borderopacity="1.0"
     inkscape:pageshadow="2"
     inkscape:pageopacity="0.0"
     inkscape:pagecheckerboard="0"
     inkscape:document-units="pt"
     showgrid="false"
     inkscape:zoom="2.0169643"
     inkscape:cx="173.28021"
     inkscape:cy="202.53209"
     inkscape:window-width="1680"
     inkscape:window-height="987"
     inkscape:window-x="-8"
     inkscape:window-y="14"
     inkscape:window-maximized="1"
     inkscape:current-layer="svg58" />
  <g
     transform="matrix(0.13286482,0,0,-0.13905164,-38.530798,358.62344)"
     fill="#000000"
     stroke="none"
     id="g56">
    <path
       d="m 290,2571 c 0,-5 20,-26 45,-47 48,-39 62,-68 20,-40 -13,9 -32,16 -42,16 -25,-1 50,-66 103,-90 23,-10 50,-29 61,-43 10,-14 75,-74 144,-135 69,-60 160,-148 202,-195 43,-46 93,-95 111,-108 51,-35 70,-72 62,-126 -3,-24 -13,-54 -21,-66 -8,-12 -15,-29 -15,-37 0,-9 -12,-27 -26,-41 -42,-39 -48,-57 -29,-86 15,-22 15,-26 1,-42 -20,-22 -20,-41 -1,-77 8,-16 15,-42 15,-57 0,-16 9,-42 20,-57 12,-16 33,-60 48,-97 18,-45 35,-71 50,-78 12,-5 25,-18 28,-27 3,-10 9,-18 15,-18 32,0 53,-178 27,-235 -13,-29 -14,-29 -48,-10 -28,16 -70,20 -70,6 0,-15 133,-100 167,-107 28,-6 32,-10 27,-29 -3,-13 -1,-26 6,-30 6,-4 8,-15 5,-25 -6,-19 18,-50 39,-50 21,0 40,30 38,58 -1,15 5,35 12,45 14,18 21,17 203,-7 310,-43 288,-38 289,-66 2,-44 4,-49 22,-54 9,-3 22,-16 27,-28 12,-28 53,-31 69,-6 8,13 5,22 -13,42 -33,35 -19,49 40,41 55,-8 143,14 180,44 32,26 19,35 -46,35 -45,0 -55,3 -55,17 0,9 -18,28 -39,42 -26,17 -48,45 -66,82 -15,31 -37,62 -49,71 l -21,14 23,6 c 12,4 22,14 22,25 0,10 4,21 10,24 5,3 10,30 10,58 0,29 5,93 11,142 10,91 0,231 -22,302 -18,57 -65,87 -192,122 -64,17 -146,34 -182,38 l -64,6 17,29 c 19,33 159,124 267,173 39,18 81,44 94,59 14,14 30,26 36,26 7,0 42,13 78,30 36,16 87,34 113,40 33,8 62,24 94,53 25,23 54,47 63,52 15,9 52,113 43,122 -2,2 -13,5 -24,8 -15,2 -31,-9 -56,-40 -20,-24 -36,-48 -36,-54 0,-6 -12,-13 -27,-17 -118,-27 -364,-99 -402,-118 -25,-13 -73,-29 -106,-36 -33,-6 -68,-14 -77,-16 -15,-5 -18,2 -18,41 0,106 -105,167 -200,116 -27,-14 -39,-30 -55,-74 -11,-30 -23,-58 -27,-62 -14,-14 -288,133 -312,167 -7,10 -103,78 -212,151 -156,103 -203,140 -216,167 -14,27 -29,39 -65,52 -53,18 -123,23 -123,9 z M 1632,1370 c 37,0 48,-53 41,-206 l -6,-139 26,-12 c 35,-16 37,-46 7,-131 -30,-87 -34,-82 100,-113 119,-27 124,-28 118,-34 -3,-3 -40,1 -84,10 -133,24 -499,75 -545,75 h -44 v 103 c 0,98 -1,105 -28,141 -16,20 -32,50 -37,67 -7,25 -5,32 16,45 18,12 24,25 24,53 0,35 -11,91 -24,121 -5,13 13,15 143,12 97,-2 157,0 168,8 10,6 38,8 62,5 24,-3 52,-5 63,-5 z"
       id="path2" />
    <path
       d="m 603,95 c 0,-27 2,-38 4,-22 2,15 8,27 13,27 5,0 11,-12 13,-27 4,-26 4,-26 6,5 1,22 -4,32 -13,32 -8,0 -17,8 -19,18 -3,9 -5,-5 -4,-33 z"
       id="path4" />
    <path
       d="m 1102,95 c 0,-27 2,-43 5,-35 3,8 13,24 22,35 15,18 15,19 -1,7 -14,-12 -17,-10 -21,15 -2,16 -4,6 -5,-22 z"
       id="path6" />
    <path
       d="m 719,119 c -8,-20 4,-62 19,-65 7,-1 8,0 2,3 -16,7 -12,43 5,43 8,0 15,-9 15,-19 0,-11 4,-22 9,-25 5,-4 7,3 4,15 -3,12 -1,24 4,28 7,4 6,11 -3,19 -8,7 -14,8 -14,2 0,-14 -27,-13 -32,2 -3,8 -6,7 -9,-3 z"
       id="path8" />
    <path
       d="m 948,117 c -7,-19 6,-60 20,-63 7,-1 8,0 2,3 -12,6 -13,40 -1,45 5,2 3,8 -4,15 -10,9 -14,9 -17,0 z"
       id="path10" />
    <path
       d="m 1500,125 c -1,-5 -1,-21 0,-34 1,-13 -4,-28 -12,-32 -9,-6 -3,-9 17,-9 17,0 25,4 18,8 -6,4 -13,23 -16,42 -2,19 -5,31 -7,25 z"
       id="path12" />
    <path
       d="m 1552,105 c -22,-28 -23,-30 -5,-34 10,-2 21,-8 24,-13 10,-15 16,14 10,47 l -6,29 z m 14,-22 c -10,-10 -19,5 -10,18 6,11 8,11 12,0 2,-7 1,-15 -2,-18 z"
       id="path14" />
    <path
       d="m 1620,125 c -1,-5 -1,-21 0,-34 1,-13 -4,-28 -12,-32 -9,-6 -3,-9 17,-9 17,0 25,4 18,8 -6,4 -13,23 -16,42 -2,19 -5,31 -7,25 z"
       id="path16" />
    <path
       d="m 1680,125 c -1,-5 -1,-21 0,-34 1,-13 -4,-28 -12,-32 -9,-6 -3,-9 17,-9 17,0 25,4 18,8 -6,4 -13,23 -16,42 -2,19 -5,31 -7,25 z"
       id="path18" />
    <path
       d="m 1732,105 c -22,-28 -23,-30 -5,-34 10,-2 21,-8 24,-13 10,-15 16,14 10,47 l -6,29 z m 14,-22 c -10,-10 -19,5 -10,18 6,11 8,11 12,0 2,-7 1,-15 -2,-18 z"
       id="path20" />
    <path
       d="m 1787,123 c -12,-12 -7,-33 7,-33 26,0 28,-20 4,-29 -15,-7 -17,-10 -7,-10 9,-1 22,6 29,14 11,13 14,13 26,-2 12,-17 14,-17 30,-1 16,16 18,16 30,0 10,-14 14,-14 28,-3 9,7 16,21 16,31 0,10 -7,24 -16,31 -14,11 -18,10 -30,-5 -12,-17 -14,-17 -20,-3 -9,25 -32,20 -48,-10 -8,-16 -15,-22 -16,-15 0,6 -7,12 -15,12 -21,0 -19,18 3,23 14,4 14,5 1,6 -9,0 -19,-2 -22,-6 z m 88,-33 c 0,-27 -20,-38 -28,-15 -8,20 3,47 17,42 6,-2 11,-14 11,-27 z m 60,0 c 0,-27 -20,-38 -28,-15 -8,20 3,47 17,42 6,-2 11,-14 11,-27 z"
       id="path22" />
    <path
       d="m 1980,125 c -1,-5 -1,-21 0,-34 1,-13 -4,-28 -12,-32 -9,-6 -3,-9 17,-9 17,0 25,4 18,8 -6,4 -13,23 -16,42 -2,19 -5,31 -7,25 z"
       id="path24" />
    <path
       d="m 2025,120 c -4,-6 1,-7 11,-3 13,5 16,3 11,-10 -3,-9 -2,-19 4,-22 14,-9 -1,-27 -18,-21 -8,3 -11,1 -8,-4 8,-14 32,-13 37,2 13,39 -18,88 -37,58 z"
       id="path26" />
    <path
       d="m 550,93 c 0,-10 4,-14 8,-8 4,6 11,13 16,18 5,4 2,7 -7,7 -10,0 -17,-8 -17,-17 z"
       id="path28" />
    <path
       d="m 661,83 c -1,-27 3,-33 19,-33 16,0 20,6 19,33 -2,30 -2,30 -6,5 -6,-36 -20,-36 -26,0 -4,25 -4,25 -6,-5 z"
       id="path30" />
    <path
       d="m 807,104 c -13,-13 -7,-24 14,-24 11,0 19,5 17,12 -5,14 -22,21 -31,12 z"
       id="path32" />
    <path
       d="m 861,78 c 2,-28 2,-29 6,-8 3,14 10,28 17,32 7,5 5,8 -6,8 -14,0 -18,-8 -17,-32 z"
       id="path34" />
    <path
       d="m 900,93 c 0,-10 4,-14 8,-8 4,6 11,13 16,18 5,4 2,7 -7,7 -10,0 -17,-8 -17,-17 z"
       id="path36" />
    <path
       d="m 994,95 c -8,-21 2,-45 20,-45 7,0 16,7 20,15 8,21 -3,45 -20,45 -8,0 -17,-7 -20,-15 z m 31,-15 c 0,-7 -6,-15 -12,-17 -8,-3 -13,4 -13,17 0,13 5,20 13,18 6,-3 12,-11 12,-18 z"
       id="path38" />
    <path
       d="m 1054,95 c -8,-20 2,-45 18,-44 10,0 10,2 1,6 -7,2 -13,13 -13,23 0,10 6,21 13,23 9,4 9,6 -1,6 -7,1 -15,-6 -18,-14 z"
       id="path40" />
    <path
       d="m 1194,95 c -8,-20 2,-45 18,-44 10,0 10,2 1,6 -7,2 -13,13 -13,23 0,10 6,21 13,23 9,4 9,6 -1,6 -7,1 -15,-6 -18,-14 z"
       id="path42" />
    <path
       d="m 1244,95 c -8,-21 2,-45 20,-45 7,0 16,7 20,15 8,21 -3,45 -20,45 -8,0 -17,-7 -20,-15 z m 31,-15 c 0,-7 -6,-15 -12,-17 -8,-3 -13,4 -13,17 0,13 5,20 13,18 6,-3 12,-11 12,-18 z"
       id="path44" />
    <path
       d="m 1301,77 c 2,-31 2,-31 6,-4 2,15 8,27 13,27 5,0 11,-12 13,-27 l 4,-28 2,28 c 0,15 5,27 10,27 5,0 12,-12 14,-27 4,-27 4,-27 6,4 1,29 -1,31 -34,31 -33,0 -35,-2 -34,-31 z"
       id="path46" />
    <path
       d="m 562,65 c -11,-12 -10,-15 3,-15 8,0 15,7 15,15 0,18 -2,18 -18,0 z"
       id="path48" />
    <path
       d="m 912,65 c -11,-12 -10,-15 3,-15 8,0 15,7 15,15 0,18 -2,18 -18,0 z"
       id="path50" />
    <path
       d="m 1120,71 c 0,-5 5,-13 10,-16 6,-3 10,-2 10,4 0,5 -4,13 -10,16 -5,3 -10,2 -10,-4 z"
       id="path52" />
    <path
       d="m 808,58 c 5,-5 16,-8 23,-6 8,3 3,7 -10,11 -17,4 -21,3 -13,-5 z"
       id="path54" />
  </g>
</svg>
