<?xml version="1.0" encoding="UTF-8" standalone="no"?>
<svg
   class="ionicon"
   viewBox="0 0 512 512"
   version="1.1"
   id="svg8"
   sodipodi:docname="logo-instagram.svg"
   inkscape:version="1.1 (c68e22c387, 2021-05-23)"
   xmlns:inkscape="http://www.inkscape.org/namespaces/inkscape"
   xmlns:sodipodi="http://sodipodi.sourceforge.net/DTD/sodipodi-0.dtd"
   xmlns="http://www.w3.org/2000/svg"
   xmlns:svg="http://www.w3.org/2000/svg"
   xmlns:rdf="http://www.w3.org/1999/02/22-rdf-syntax-ns#"
   xmlns:cc="http://creativecommons.org/ns#"
   xmlns:dc="http://purl.org/dc/elements/1.1/">
  <defs
     id="defs12">
    <inkscape:path-effect
       effect="powerclip"
       id="path-effect10628"
       is_visible="true"
       lpeversion="1"
       inverse="true"
       flatten="false"
       hide_clip="false"
       message="Utilise la règle de remplissage « fill-rule: evenodd » de la boîte de dialogue &lt;b&gt;Fond et contour&lt;/b&gt; en l'absence de résultat de mise à plat après une conversion en chemin." />
  </defs>
  <sodipodi:namedview
     id="namedview10"
     pagecolor="#ffffff"
     bordercolor="#666666"
     borderopacity="1.0"
     inkscape:pageshadow="2"
     inkscape:pageopacity="0.0"
     inkscape:pagecheckerboard="0"
     showgrid="false"
     inkscape:zoom="1.4707031"
     inkscape:cx="233.56176"
     inkscape:cy="164.88712"
     inkscape:window-width="1920"
     inkscape:window-height="1017"
     inkscape:window-x="1672"
     inkscape:window-y="-8"
     inkscape:window-maximized="1"
     inkscape:current-layer="svg8" />
  <title
     id="title2">Logo Instagram</title>
  <metadata
     id="metadata12124">
    <rdf:RDF>
      <cc:Work
         rdf:about="">
        <dc:title>Logo Instagram</dc:title>
      </cc:Work>
    </rdf:RDF>
  </metadata>
  <circle
     style="fill:#000000;fill-opacity:1;stroke:#ffffff;stroke-width:1.20487;stroke-opacity:0;paint-order:stroke fill markers"
     id="path2081"
     clip-path="none"
     cx="256"
     cy="256"
     r="255.39757" />
  <path
     id="path10620"
     style="fill:#ffffff;fill-opacity:1;stroke-width:0.805045"
     d="m 181.35938,74.476557 c -57.4779,0 -104.503911,47.649183 -104.503911,105.890633 v 151.26562 c 0,58.24146 47.026021,105.89063 104.503911,105.89063 h 149.28124 c 57.4779,0 104.50391,-47.64917 104.50391,-105.89063 V 180.36719 c 0,-58.24145 -47.026,-105.890623 -104.50391,-105.890633 z m 0,30.251963 h 149.28124 a 74.872418,75.867051 0 0 1 74.64844,75.63867 v 151.26562 a 74.872418,75.867051 0 0 1 -74.64844,75.63867 H 181.35938 A 74.872418,75.867051 0 0 1 106.71094,331.63281 V 180.36719 a 74.872418,75.867051 0 0 1 74.64844,-75.63867 z" />
  <g
     id="g10624"
     style="fill:#ffffff;fill-opacity:1">
    <path
       d="m 353.03343,180.36794 a 22.392948,22.690424 0 1 1 22.39296,-22.69042 22.344963,22.641802 0 0 1 -22.39296,22.69042 z m -97.03344,15.12155 a 59.717194,60.5105 0 1 1 -59.7172,60.5105 59.781175,60.57533 0 0 1 59.7172,-60.5105 m 0,-30.2512 a 89.571789,90.761694 0 1 0 89.57179,90.7617 89.571789,90.761694 0 0 0 -89.57179,-90.7617 z"
       id="path10622"
       style="fill:#ffffff;fill-opacity:1;stroke-width:0.805045" />
  </g>
</svg>
