<?xml version="1.0" encoding="UTF-8" standalone="no"?>
<svg
   class="ionicon"
   viewBox="0 0 512 512"
   version="1.1"
   id="svg6"
   sodipodi:docname="person-circle.svg"
   inkscape:version="1.1 (c68e22c387, 2021-05-23)"
   xmlns:inkscape="http://www.inkscape.org/namespaces/inkscape"
   xmlns:sodipodi="http://sodipodi.sourceforge.net/DTD/sodipodi-0.dtd"
   xmlns="http://www.w3.org/2000/svg"
   xmlns:svg="http://www.w3.org/2000/svg">
  <defs
     id="defs10" />
  <sodipodi:namedview
     id="namedview8"
     pagecolor="#ffffff"
     bordercolor="#666666"
     borderopacity="1.0"
     inkscape:pageshadow="2"
     inkscape:pageopacity="0.0"
     inkscape:pagecheckerboard="0"
     showgrid="false"
     inkscape:zoom="1.4707031"
     inkscape:cx="253.62019"
     inkscape:cy="256"
     inkscape:window-width="1920"
     inkscape:window-height="1017"
     inkscape:window-x="1672"
     inkscape:window-y="-8"
     inkscape:window-maximized="1"
     inkscape:current-layer="svg6" />
  <title
     id="title2">Person Circle</title>
  <path
     d="M256 48C141.31 48 48 141.31 48 256s93.31 208 208 208 208-93.31 208-208S370.69 48 256 48zm-50.22 116.82C218.45 151.39 236.28 144 256 144s37.39 7.44 50.11 20.94c12.89 13.68 19.16 32.06 17.68 51.82C320.83 256 290.43 288 256 288s-64.89-32-67.79-71.25c-1.47-19.92 4.79-38.36 17.57-51.93zM256 432a175.49 175.49 0 01-126-53.22 122.91 122.91 0 0135.14-33.44C190.63 329 222.89 320 256 320s65.37 9 90.83 25.34A122.87 122.87 0 01382 378.78 175.45 175.45 0 01256 432z"
     id="path4"
     onmouseover=""
     style="fill:#000000;fill-opacity:1" />
</svg>
