<?xml version="1.0" standalone="no"?>
<!DOCTYPE svg PUBLIC "-//W3C//DTD SVG 20010904//EN"
 "http://www.w3.org/TR/2001/REC-SVG-20010904/DTD/svg10.dtd">
<svg version="1.0" xmlns="http://www.w3.org/2000/svg"
 width="50.000000pt" height="23.000000pt" viewBox="0 0 50.000000 23.000000"
 preserveAspectRatio="xMidYMid meet">

<g transform="translate(0.000000,23.000000) scale(0.100000,-0.100000)"
fill="#000000" stroke="none">
<path d="M0 221 c0 -25 46 -31 244 -31 134 0 214 4 231 12 37 17 32 32 -7 22
-43 -11 -405 -12 -440 0 -19 5 -28 5 -28 -3z"/>
<path d="M455 159 c-34 -11 -359 -14 -420 -4 l-40 6 24 -21 c24 -20 33 -21
225 -19 146 2 209 6 229 16 15 8 25 18 22 23 -4 6 -7 10 -8 9 -1 0 -15 -5 -32
-10z"/>
<path d="M5 100 c-7 -11 47 -40 75 -40 23 0 26 -10 8 -28 -9 -9 -9 -15 -1 -23
15 -15 51 9 55 36 3 18 11 20 106 23 94 2 102 1 102 -16 0 -24 35 -56 50 -47
7 4 9 19 5 36 -6 28 -5 29 27 29 35 0 78 23 66 35 -4 4 -22 2 -40 -4 -43 -13
-373 -16 -415 -3 -19 6 -35 7 -38 2z"/>
</g>
</svg>
