<?xml version="1.0" encoding="UTF-8" standalone="no"?>
<svg
   class="ionicon"
   viewBox="0 0 512 512"
   version="1.1"
   id="svg6"
   sodipodi:docname="logo-facebook-white.svg"
   inkscape:version="1.1 (c68e22c387, 2021-05-23)"
   xmlns:inkscape="http://www.inkscape.org/namespaces/inkscape"
   xmlns:sodipodi="http://sodipodi.sourceforge.net/DTD/sodipodi-0.dtd"
   xmlns="http://www.w3.org/2000/svg"
   xmlns:svg="http://www.w3.org/2000/svg">
  <defs
     id="defs10">
    <clipPath
       clipPathUnits="userSpaceOnUse"
       id="clipPath6640">
      <rect
         style="fill:#000000;fill-opacity:1;stroke:#010000;stroke-opacity:0"
         id="rect6642"
         width="459"
         height="458"
         x="27"
         y="28" />
    </clipPath>
    <clipPath
       clipPathUnits="userSpaceOnUse"
       id="clipPath6644">
      <rect
         style="fill:#000000;fill-opacity:1;stroke:#010000;stroke-opacity:0"
         id="rect6646"
         width="459"
         height="458"
         x="27"
         y="28" />
    </clipPath>
  </defs>
  <sodipodi:namedview
     id="namedview8"
     pagecolor="#ffffff"
     bordercolor="#666666"
     borderopacity="1.0"
     inkscape:pageshadow="2"
     inkscape:pageopacity="0.0"
     inkscape:pagecheckerboard="0"
     showgrid="false"
     inkscape:zoom="1"
     inkscape:cx="328.5"
     inkscape:cy="182.5"
     inkscape:window-width="1920"
     inkscape:window-height="1017"
     inkscape:window-x="1672"
     inkscape:window-y="-8"
     inkscape:window-maximized="1"
     inkscape:current-layer="svg6" />
  <title
     id="title2">Logo Facebook</title>
  <path
     style="fill:#000000;fill-opacity:1;stroke:#010000;stroke-opacity:1"
     d="m 243,479.44397 c -6.6,-0.36338 -14.1375,-1.00053 -16.75,-1.41588 l -4.75,-0.75518 V 399.38646 321.5 H 193 164.5 V 290 258.5 h 28.38919 28.38919 l 0.47228,-32.25 c 0.3675,-25.09552 0.85463,-34.13568 2.19582,-40.75 7.51903,-37.08155 31.85537,-58.95214 70.21389,-63.09986 11.50164,-1.24367 31.27854,-0.38495 51.62579,2.24162 L 354.5,125.7666 v 26.77468 26.77467 l -19.25,0.41489 c -15.02273,0.32378 -20.23819,0.79219 -23.75,2.13302 -9.8115,3.7461 -16.02969,10.19563 -19.34462,20.06428 -1.37054,4.08014 -1.65538,9.37135 -1.65538,30.75 V 258.5 H 321 c 28.95482,0 30.5,0.0933 30.5,1.84092 0,1.01251 -2.025,14.93528 -4.5,30.93948 -2.475,16.00421 -4.5,29.35079 -4.5,29.65908 0,0.30829 -11.7,0.56052 -26,0.56052 h -26 v 77.86916 77.86916 l -3.75,0.64165 c -2.0625,0.35291 -8.025,0.87504 -13.25,1.16029 -5.225,0.28525 -11.525,0.64143 -14,0.79152 -2.475,0.15008 -9.9,-0.0244 -16.5,-0.38781 z"
     id="path5697"
     clip-path="url(#clipPath6644)"
     transform="matrix(1.138081,0,0,1.1407718,-35.348739,-36.624809)" />
  <path
     d="M 480,257.92556 C 480,133.90771 379.7,33.35 256,33.35 132.3,33.35 32,133.90771 32,257.92556 32,370.01283 113.9,462.92095 221,479.78418 V 322.86199 H 164.11 V 257.92556 H 221 v -49.47679 c 0,-56.27425 33.45,-87.38397 84.61,-87.38397 24.51,0 50.15,4.39126 50.15,4.39126 v 55.27166 H 327.5 c -27.81,0 -36.51,17.30435 -36.51,35.08993 v 42.10791 h 62.12 l -9.92,64.93643 H 291 V 479.80423 C 398.1,462.95103 480,370.04291 480,257.92556 Z"
     fill-rule="evenodd"
     id="path4"
     sodipodi:nodetypes="ssscccccssccsscccccs"
     style="fill:#ffffff;fill-opacity:1;stroke:#010000;stroke-width:1.00257;stroke-opacity:0"
     mask="none"
     inkscape:original-d="m 480,257.35 c 0,-123.7 -100.3,-224 -224,-224 -123.7,0 -224,100.3 -224,224 0,111.8 81.9,204.47 189,221.29 V 322.12 H 164.11 V 257.35 H 221 V 208 c 0,-56.13 33.45,-87.16 84.61,-87.16 24.51,0 50.15,4.38 50.15,4.38 v 55.13 H 327.5 c -27.81,0 -36.51,17.26 -36.51,35 v 42 h 62.12 l -9.92,64.77 H 291 V 478.66 C 398.1,461.85 480,369.18 480,257.35 Z"
     clip-path="url(#clipPath6640)"
     transform="matrix(1.138081,0,0,1.1407718,-35.348739,-36.624809)" />
</svg>
